<svg width="260" height="29" viewBox="0 0 260 29" fill="none" xmlns="http://www.w3.org/2000/svg">
<path d="M10.5 17.5625C11.2249 17.5625 11.8125 16.9749 11.8125 16.25C11.8125 15.5251 11.2249 14.9375 10.5 14.9375C9.77513 14.9375 9.1875 15.5251 9.1875 16.25C9.1875 16.9749 9.77513 17.5625 10.5 17.5625Z" fill="white"/>
<path d="M17.5 17.5625C18.2249 17.5625 18.8125 16.9749 18.8125 16.25C18.8125 15.5251 18.2249 14.9375 17.5 14.9375C16.7751 14.9375 16.1875 15.5251 16.1875 16.25C16.1875 16.9749 16.7751 17.5625 17.5 17.5625Z" fill="white"/>
<path fill-rule="evenodd" clip-rule="evenodd" d="M13.9935 9.25001C12.0966 9.23598 10.2092 9.51769 8.39912 10.085C7.93799 10.2295 7.44701 9.97285 7.30249 9.51172C7.15796 9.05059 7.41463 8.55961 7.87576 8.41508C9.8573 7.79405 11.9234 7.48533 13.9999 7.50001C16.0764 7.48533 18.1426 7.79405 20.1241 8.41508C20.5853 8.55961 20.8419 9.05059 20.6974 9.51172C20.5529 9.97285 20.0619 10.2295 19.6008 10.085C17.7907 9.51769 15.9032 9.23598 14.0064 9.25001H13.9935Z" fill="white"/>
<path fill-rule="evenodd" clip-rule="evenodd" d="M7.30249 19.4886C7.44701 19.0274 7.93799 18.7708 8.39912 18.9153C10.2092 19.4826 12.0966 19.7643 13.9935 19.7503H14.0064C15.9032 19.7643 17.7907 19.4826 19.6008 18.9153C20.0619 18.7708 20.5529 19.0274 20.6974 19.4886C20.8419 19.9497 20.5853 20.4407 20.1241 20.5852C18.1426 21.2062 16.0764 21.5149 13.9999 21.5003C11.9234 21.5149 9.8573 21.2062 7.87576 20.5852C7.41463 20.4407 7.15796 19.9497 7.30249 19.4886Z" fill="white"/>
<path fill-rule="evenodd" clip-rule="evenodd" d="M17.6925 4.70945C18.0692 4.49708 18.5108 4.43072 18.9332 4.52299C20.086 4.77283 21.2147 5.12334 22.3063 5.57047C22.552 5.66521 22.7727 5.81522 22.9512 6.00897C23.1317 6.20479 23.2641 6.43988 23.3381 6.69564L27.0444 19.072C27.1411 19.3944 27.1433 19.7378 27.0509 20.0614C26.9584 20.3851 26.7751 20.6754 26.5227 20.8981L26.5182 20.9021C24.7091 22.4762 22.2579 23.6676 19.4737 24.3501C19.087 24.4487 18.678 24.4103 18.3162 24.2415C17.9559 24.0734 17.6647 23.7862 17.4916 23.4285L16.1718 20.8109C15.9543 20.3794 16.1277 19.8532 16.5593 19.6357C16.9908 19.4181 17.5169 19.5916 17.7345 20.0231L19.0579 22.6481L19.0589 22.65C21.6295 22.0196 23.8119 20.9371 25.3694 19.5819L25.9438 20.242L25.3649 19.5859C25.3665 19.5845 25.3676 19.5827 25.3682 19.5807C25.3688 19.5787 25.3687 19.5765 25.3681 19.5745L21.6616 7.19745C21.6585 7.19622 21.6554 7.19498 21.6523 7.19371C20.6523 6.78343 19.618 6.46199 18.5616 6.23309L18.5597 6.23268C18.5571 6.2321 18.5544 6.23252 18.552 6.23384C18.5499 6.23502 18.5483 6.23687 18.5473 6.23909L17.6855 8.8463C17.5339 9.30513 17.0389 9.55414 16.5801 9.40248C16.1213 9.25081 15.8723 8.75591 16.0239 8.29707L16.8905 5.6754C17.0301 5.26582 17.3156 4.92197 17.6925 4.70945Z" fill="white"/>
<path fill-rule="evenodd" clip-rule="evenodd" d="M9.44794 6.23384C9.4456 6.23251 9.44285 6.2321 9.44023 6.23268L9.43832 6.23309C8.38191 6.46199 7.34769 6.78343 6.34765 7.19371C6.34456 7.19497 6.34147 7.19622 6.33837 7.19745L2.63188 19.5743C2.63128 19.5763 2.63119 19.5787 2.63177 19.5807C2.63229 19.5825 2.63326 19.5841 2.63459 19.5854C4.19182 20.939 6.37266 22.0202 8.94109 22.65L8.94203 22.6481L10.2655 20.0231C10.483 19.5916 11.0092 19.4181 11.4407 19.6357C11.8722 19.8532 12.0457 20.3794 11.8281 20.8109L10.5084 23.4285C10.3352 23.7862 10.0441 24.0734 9.68375 24.2415C9.32197 24.4104 8.91296 24.4487 8.52622 24.3501C5.74203 23.6676 3.29083 22.4762 1.48179 20.9021L1.47726 20.8982C1.22486 20.6755 1.04157 20.3851 0.949102 20.0614C0.856654 19.7379 0.858855 19.3946 0.955443 19.0722C0.955418 19.0723 0.955467 19.0721 0.955443 19.0722L4.66185 6.69566C4.73581 6.43989 4.86824 6.2048 5.04871 6.00897C5.22726 5.81522 5.44795 5.66521 5.69366 5.57047C6.78554 5.12322 7.91456 4.77264 9.06775 4.52278C9.48987 4.43082 9.93108 4.49724 10.3074 4.70944C10.6844 4.92197 10.9698 5.26583 11.1094 5.67541L11.112 5.683L11.976 8.29707C12.1277 8.75591 11.8787 9.25081 11.4198 9.40248C10.961 9.55414 10.4661 9.30513 10.3144 8.8463L9.45263 6.23908C9.45169 6.23687 9.45005 6.23502 9.44794 6.23384Z" fill="white"/>
<path d="M10.5 17.5625C11.2249 17.5625 11.8125 16.9749 11.8125 16.25C11.8125 15.5251 11.2249 14.9375 10.5 14.9375C9.77513 14.9375 9.1875 15.5251 9.1875 16.25C9.1875 16.9749 9.77513 17.5625 10.5 17.5625Z" fill="white"/>
<path d="M17.5 17.5625C18.2249 17.5625 18.8125 16.9749 18.8125 16.25C18.8125 15.5251 18.2249 14.9375 17.5 14.9375C16.7751 14.9375 16.1875 15.5251 16.1875 16.25C16.1875 16.9749 16.7751 17.5625 17.5 17.5625Z" fill="white"/>
<path fill-rule="evenodd" clip-rule="evenodd" d="M13.9935 9.25001C12.0966 9.23598 10.2092 9.51769 8.39912 10.085C7.93799 10.2295 7.44701 9.97285 7.30249 9.51172C7.15796 9.05059 7.41463 8.55961 7.87576 8.41508C9.8573 7.79405 11.9234 7.48533 13.9999 7.50001C16.0764 7.48533 18.1426 7.79405 20.1241 8.41508C20.5853 8.55961 20.8419 9.05059 20.6974 9.51172C20.5529 9.97285 20.0619 10.2295 19.6008 10.085C17.7907 9.51769 15.9032 9.23598 14.0064 9.25001H13.9935Z" fill="white"/>
<path fill-rule="evenodd" clip-rule="evenodd" d="M7.30249 19.4886C7.44701 19.0274 7.93799 18.7708 8.39912 18.9153C10.2092 19.4826 12.0966 19.7643 13.9935 19.7503H14.0064C15.9032 19.7643 17.7907 19.4826 19.6008 18.9153C20.0619 18.7708 20.5529 19.0274 20.6974 19.4886C20.8419 19.9497 20.5853 20.4407 20.1241 20.5852C18.1426 21.2062 16.0764 21.5149 13.9999 21.5003C11.9234 21.5149 9.8573 21.2062 7.87576 20.5852C7.41463 20.4407 7.15796 19.9497 7.30249 19.4886Z" fill="white"/>
<path fill-rule="evenodd" clip-rule="evenodd" d="M17.6925 4.70945C18.0692 4.49708 18.5108 4.43072 18.9332 4.52299C20.086 4.77283 21.2147 5.12334 22.3063 5.57047C22.552 5.66521 22.7727 5.81522 22.9512 6.00897C23.1317 6.20479 23.2641 6.43988 23.3381 6.69564L27.0444 19.072C27.1411 19.3944 27.1433 19.7378 27.0509 20.0614C26.9584 20.3851 26.7751 20.6754 26.5227 20.8981L26.5182 20.9021C24.7091 22.4762 22.2579 23.6676 19.4737 24.3501C19.087 24.4487 18.678 24.4103 18.3162 24.2415C17.9559 24.0734 17.6647 23.7862 17.4916 23.4285L16.1718 20.8109C15.9543 20.3794 16.1277 19.8532 16.5593 19.6357C16.9908 19.4181 17.5169 19.5916 17.7345 20.0231L19.0579 22.6481L19.0589 22.65C21.6295 22.0196 23.8119 20.9371 25.3694 19.5819L25.9438 20.242L25.3649 19.5859C25.3665 19.5845 25.3676 19.5827 25.3682 19.5807C25.3688 19.5787 25.3687 19.5765 25.3681 19.5745L21.6616 7.19745C21.6585 7.19622 21.6554 7.19498 21.6523 7.19371C20.6523 6.78343 19.618 6.46199 18.5616 6.23309L18.5597 6.23268C18.5571 6.2321 18.5544 6.23252 18.552 6.23384C18.5499 6.23502 18.5483 6.23687 18.5473 6.23909L17.6855 8.8463C17.5339 9.30513 17.0389 9.55414 16.5801 9.40248C16.1213 9.25081 15.8723 8.75591 16.0239 8.29707L16.8905 5.6754C17.0301 5.26582 17.3156 4.92197 17.6925 4.70945Z" fill="white"/>
<path fill-rule="evenodd" clip-rule="evenodd" d="M9.44794 6.23384C9.4456 6.23251 9.44285 6.2321 9.44023 6.23268L9.43832 6.23309C8.38191 6.46199 7.34769 6.78343 6.34765 7.19371C6.34456 7.19497 6.34147 7.19622 6.33837 7.19745L2.63188 19.5743C2.63128 19.5763 2.63119 19.5787 2.63177 19.5807C2.63229 19.5825 2.63326 19.5841 2.63459 19.5854C4.19182 20.939 6.37266 22.0202 8.94109 22.65L8.94203 22.6481L10.2655 20.0231C10.483 19.5916 11.0092 19.4181 11.4407 19.6357C11.8722 19.8532 12.0457 20.3794 11.8281 20.8109L10.5084 23.4285C10.3352 23.7862 10.0441 24.0734 9.68375 24.2415C9.32197 24.4104 8.91296 24.4487 8.52622 24.3501C5.74203 23.6676 3.29083 22.4762 1.48179 20.9021L1.47726 20.8982C1.22486 20.6755 1.04157 20.3851 0.949102 20.0614C0.856654 19.7379 0.858855 19.3946 0.955443 19.0722C0.955418 19.0723 0.955467 19.0721 0.955443 19.0722L4.66185 6.69566C4.73581 6.43989 4.86824 6.2048 5.04871 6.00897C5.22726 5.81522 5.44795 5.66521 5.69366 5.57047C6.78554 5.12322 7.91456 4.77264 9.06775 4.52278C9.48987 4.43082 9.93108 4.49724 10.3074 4.70944C10.6844 4.92197 10.9698 5.26583 11.1094 5.67541L11.112 5.683L11.976 8.29707C12.1277 8.75591 11.8787 9.25081 11.4198 9.40248C10.961 9.55414 10.4661 9.30513 10.3144 8.8463L9.45263 6.23908C9.45169 6.23687 9.45005 6.23502 9.44794 6.23384Z" fill="white"/>
<path fill-rule="evenodd" clip-rule="evenodd" d="M81.5165 3.6652C81.812 3.55064 82.1331 3.51848 82.4454 3.57215C82.7578 3.62582 83.0497 3.7633 83.29 3.96993C83.5303 4.17655 83.71 4.44456 83.8099 4.74533C83.9098 5.04611 83.9261 5.36837 83.8571 5.6777L83.8561 5.6826L83.856 5.6826L79.7435 23.642L79.7434 23.6424C79.6755 23.9383 79.5318 24.2114 79.3265 24.4349C79.1211 24.6584 78.8611 24.8247 78.5721 24.9173C78.283 25.01 77.9749 25.0259 77.6778 24.9635C77.3814 24.9011 77.1062 24.7629 76.8792 24.5624C76.8787 24.562 76.8783 24.5616 76.8778 24.5612L67.223 16.0662L61.6231 14.942L61.6195 14.9413C59.9375 14.5963 59.679 12.2403 61.3229 11.5961L61.6422 12.4107L61.3223 11.5963L61.3229 11.5961L81.5129 3.6666L81.5165 3.6652ZM61.9669 13.2232C61.9671 13.2243 61.9673 13.2253 61.9675 13.2262C61.9683 13.2264 61.9692 13.2266 61.9702 13.2268C61.9705 13.2269 61.9708 13.2269 61.9711 13.227L67.7972 14.3966C67.9478 14.4268 68.0877 14.4961 68.203 14.5976L78.0358 23.2491L78.0378 23.2509L82.1491 5.29688L61.9669 13.2232ZM61.9586 13.2235C61.9586 13.2235 61.9586 13.2235 61.9586 13.2235L61.9586 13.2235Z" fill="white"/>
<path fill-rule="evenodd" clip-rule="evenodd" d="M83.2203 3.99067C83.5033 4.38242 83.4151 4.92938 83.0233 5.21232L68.1374 15.9639C67.7456 16.2468 67.1987 16.1586 66.9157 15.7669C66.6328 15.3751 66.721 14.8282 67.1127 14.5452L81.9987 3.79366C82.3904 3.51071 82.9374 3.59892 83.2203 3.99067Z" fill="white"/>
<path fill-rule="evenodd" clip-rule="evenodd" d="M67.625 14.3799C68.1082 14.3799 68.5 14.7716 68.5 15.2549L68.5 22.3737L68.5047 22.369L71.9172 18.9565C72.2589 18.6148 72.8129 18.6148 73.1547 18.9565C73.4964 19.2982 73.4964 19.8522 73.1547 20.1939L69.7441 23.6045C69.501 23.8502 69.1906 24.0184 68.852 24.088C68.5121 24.1578 68.1591 24.1249 67.8379 23.9936C67.5166 23.8623 67.2417 23.6385 67.048 23.3506C66.8543 23.0627 66.7506 22.7237 66.75 22.3767L66.75 15.2549C66.75 14.7716 67.1418 14.3799 67.625 14.3799Z" fill="white"/>
<path fill-rule="evenodd" clip-rule="evenodd" d="M130 11C128.067 11 126.5 12.567 126.5 14.5C126.5 16.433 128.067 18 130 18C131.933 18 133.5 16.433 133.5 14.5C133.5 12.567 131.933 11 130 11ZM124.75 14.5C124.75 11.6005 127.101 9.25 130 9.25C132.899 9.25 135.25 11.6005 135.25 14.5C135.25 17.3995 132.899 19.75 130 19.75C127.101 19.75 124.75 17.3995 124.75 14.5Z" fill="white"/>
<path fill-rule="evenodd" clip-rule="evenodd" d="M125.188 5.3125C122.771 5.3125 120.812 7.27125 120.812 9.6875V19.3125C120.812 21.7287 122.771 23.6875 125.188 23.6875H134.812C137.229 23.6875 139.188 21.7287 139.188 19.3125V9.6875C139.188 7.27125 137.229 5.3125 134.812 5.3125H125.188ZM119.062 9.6875C119.062 6.30476 121.805 3.5625 125.188 3.5625H134.812C138.195 3.5625 140.938 6.30476 140.938 9.6875V19.3125C140.938 22.6952 138.195 25.4375 134.812 25.4375H125.188C121.805 25.4375 119.062 22.6952 119.062 19.3125V9.6875Z" fill="white"/>
<path d="M135.688 10.125C136.412 10.125 137 9.53737 137 8.8125C137 8.08763 136.412 7.5 135.688 7.5C134.963 7.5 134.375 8.08763 134.375 8.8125C134.375 9.53737 134.963 10.125 135.688 10.125Z" fill="white"/>
<path fill-rule="evenodd" clip-rule="evenodd" d="M177.062 5.3125C177.062 4.346 177.846 3.5625 178.812 3.5625H197.188C198.154 3.5625 198.938 4.346 198.938 5.3125V23.6875C198.938 24.654 198.154 25.4375 197.188 25.4375H178.812C177.846 25.4375 177.062 24.654 177.062 23.6875V5.3125ZM197.188 5.3125H178.812V23.6875H197.188V5.3125Z" fill="white"/>
<path fill-rule="evenodd" clip-rule="evenodd" d="M187.125 11.875C187.608 11.875 188 12.2668 188 12.75V19.75C188 20.2332 187.608 20.625 187.125 20.625C186.642 20.625 186.25 20.2332 186.25 19.75V12.75C186.25 12.2668 186.642 11.875 187.125 11.875Z" fill="white"/>
<path fill-rule="evenodd" clip-rule="evenodd" d="M183.625 11.875C184.108 11.875 184.5 12.2668 184.5 12.75V19.75C184.5 20.2332 184.108 20.625 183.625 20.625C183.142 20.625 182.75 20.2332 182.75 19.75V12.75C182.75 12.2668 183.142 11.875 183.625 11.875Z" fill="white"/>
<path fill-rule="evenodd" clip-rule="evenodd" d="M190.188 13.625C189.607 13.625 189.051 13.8555 188.641 14.2657C188.23 14.6759 188 15.2323 188 15.8125C188 16.2957 187.608 16.6875 187.125 16.6875C186.642 16.6875 186.25 16.2957 186.25 15.8125C186.25 14.7682 186.665 13.7667 187.403 13.0283C188.142 12.2898 189.143 11.875 190.188 11.875C191.232 11.875 192.233 12.2898 192.972 13.0283C193.71 13.7667 194.125 14.7682 194.125 15.8125V19.75C194.125 20.2332 193.733 20.625 193.25 20.625C192.767 20.625 192.375 20.2332 192.375 19.75V15.8125C192.375 15.2323 192.145 14.6759 191.734 14.2657C191.324 13.8555 190.768 13.625 190.188 13.625Z" fill="white"/>
<path d="M183.625 10.5625C184.35 10.5625 184.938 9.97487 184.938 9.25C184.938 8.52513 184.35 7.9375 183.625 7.9375C182.9 7.9375 182.312 8.52513 182.312 9.25C182.312 9.97487 182.9 10.5625 183.625 10.5625Z" fill="white"/>
<path fill-rule="evenodd" clip-rule="evenodd" d="M243.837 10.2285C244.122 10.0763 244.467 10.093 244.735 10.272L249.985 13.772C250.229 13.9342 250.375 14.2074 250.375 14.5C250.375 14.7926 250.229 15.0658 249.985 15.228L244.735 18.728C244.467 18.907 244.122 18.9237 243.837 18.7715C243.553 18.6192 243.375 18.3227 243.375 18V11C243.375 10.6773 243.553 10.3808 243.837 10.2285ZM245.125 12.635V16.365L247.923 14.5L245.125 12.635Z" fill="white"/>
<path fill-rule="evenodd" clip-rule="evenodd" d="M245.999 4.91849L245.984 4.91846L245.929 4.91848C245.881 4.91859 245.812 4.91894 245.723 4.91988C245.545 4.92177 245.287 4.92606 244.968 4.93565C244.33 4.95481 243.44 4.99518 242.433 5.0802C240.441 5.24837 237.906 5.59737 235.953 6.34333L235.94 6.34836C235.557 6.50186 235.215 6.74335 234.942 7.05333C234.669 7.36332 234.473 7.73313 234.369 8.13294L234.368 8.13623C234.095 9.20247 233.75 11.1797 233.75 14.4998C233.75 17.8198 234.095 19.797 234.368 20.8633L234.369 20.8666C234.473 21.2664 234.669 21.6362 234.942 21.9462C235.215 22.2562 235.557 22.4977 235.94 22.6512L235.953 22.6562C237.906 23.4021 240.441 23.7511 242.433 23.9193C243.44 24.0043 244.33 24.0447 244.968 24.0639C245.287 24.0735 245.545 24.0777 245.723 24.0796C245.812 24.0806 245.881 24.0809 245.929 24.081L245.984 24.0811L245.999 24.081H246.001L246.016 24.0811L246.071 24.081C246.119 24.0809 246.188 24.0806 246.277 24.0796C246.455 24.0777 246.713 24.0735 247.032 24.0639C247.67 24.0447 248.56 24.0043 249.567 23.9193C251.559 23.7511 254.094 23.4021 256.047 22.6562L256.06 22.6512C256.443 22.4977 256.785 22.2562 257.058 21.9462C257.331 21.6362 257.527 21.2664 257.631 20.8666L257.632 20.8633C257.905 19.797 258.25 17.8198 258.25 14.4998C258.25 11.1797 257.905 9.20247 257.632 8.13623L257.631 8.13294C257.527 7.73313 257.331 7.36332 257.058 7.05333C256.785 6.74335 256.443 6.50186 256.06 6.34836L256.047 6.34333C254.094 5.59737 251.559 5.24837 249.567 5.0802C248.56 4.99518 247.67 4.95481 247.032 4.93565C246.713 4.92606 246.455 4.92177 246.277 4.91988C246.188 4.91894 246.119 4.91859 246.071 4.91848L246.016 4.91846L246.001 4.91849H245.999ZM245.995 22.331L246.005 22.331L246.008 22.331L246.019 22.3311L246.067 22.331C246.11 22.3309 246.175 22.3306 246.259 22.3297C246.427 22.3279 246.673 22.3239 246.979 22.3147C247.594 22.2962 248.451 22.2573 249.42 22.1755C251.376 22.0103 253.704 21.6765 255.415 21.0243C255.541 20.9726 255.654 20.8923 255.745 20.7895C255.836 20.6857 255.902 20.5619 255.937 20.4281C256.168 19.5249 256.5 17.6962 256.5 14.4998C256.5 11.3033 256.168 9.47462 255.937 8.57144C255.902 8.4376 255.836 8.3138 255.745 8.20997C255.654 8.10726 255.541 8.02692 255.415 7.97523C253.704 7.32305 251.376 6.98919 249.42 6.824C248.451 6.74222 247.594 6.7033 246.979 6.68486C246.673 6.67565 246.427 6.67157 246.259 6.66978C246.175 6.66889 246.11 6.66857 246.067 6.66848L246.019 6.66845L246.008 6.66848L246.005 6.66849L245.995 6.66855L245.992 6.66848L245.981 6.66845L245.933 6.66848C245.89 6.66857 245.825 6.66889 245.741 6.66978C245.573 6.67157 245.327 6.67565 245.021 6.68486C244.406 6.7033 243.549 6.74222 242.58 6.824C240.624 6.98919 238.296 7.32305 236.585 7.97524C236.459 8.02692 236.346 8.10726 236.255 8.20997C236.164 8.3138 236.098 8.4376 236.063 8.57144C235.832 9.47462 235.5 11.3033 235.5 14.4998C235.5 17.6962 235.832 19.5249 236.063 20.4281C236.098 20.5619 236.164 20.6857 236.255 20.7895C236.346 20.8923 236.459 20.9726 236.585 21.0243C238.296 21.6765 240.624 22.0103 242.58 22.1755C243.549 22.2573 244.406 22.2962 245.021 22.3147C245.327 22.3239 245.573 22.3279 245.741 22.3297C245.825 22.3306 245.89 22.3309 245.933 22.331L245.981 22.3311L245.992 22.331L245.995 22.331Z" fill="white"/>
</svg>
